<svg id="Layer_1" data-name="Layer 1" xmlns="http://www.w3.org/2000/svg" viewBox="0 0 251.98 132.23"><defs><style>.cls-1{fill:#2e3192;}.cls-2{fill:#fff;}.cls-3{opacity:0.5;font-size:15.4px;fill:#231f20;font-family:Elephant-Italic, Elephant;font-style:italic;}.cls-4{fill:#f9bb16;}.cls-5{fill:#21409a;}</style></defs><path class="cls-1" d="M467.47,274.41a8.33,8.33,0,0,1,7,5.06c.07.19.31.18.37.39a11.26,11.26,0,0,1,.2,2.91,7.24,7.24,0,0,1-2.56,4.62,10.11,10.11,0,0,1-2.61,1.3c-.21.09-.37-.19-.3.37l5.7,7.9H469.1a16.58,16.58,0,0,1-1.32-1.45c-.9-1.19-1.82-3.08-2.71-4.23a15,15,0,0,0-1.46-1.59h-3.56V297h-5.49V274.41C458.72,274.76,463.37,273.94,467.47,274.41Zm-1.62,4.26c-1.8-.26-4,.19-5.8,0v6.76h5.8a6.74,6.74,0,0,0,2.89-1.57,4.49,4.49,0,0,0,0-3.87A8.1,8.1,0,0,0,465.85,278.67Z" transform="translate(-294.95 -231.52)"/><path class="cls-1" d="M525.55,274.54c.32-.62.79-.13,1.31-.12,5.22.14,13.54-1.43,17.58,3.15,1.31,1.49.87,1.87,1.25,3.68,0,.21.61.12.4,1,0,.18-.35.13-.4.35a15.09,15.09,0,0,1-.35,2.51,9.77,9.77,0,0,1-1.82,2.28l-3.33,1.79c1,.51,1.75,2.12,2.44,3.06a41.65,41.65,0,0,1,3.46,4.71h-6l-5.49-7.27H531V297h-5.49Zm11.29,4.13c-1.8-.26-4,.19-5.8,0v6.76h5.8a6.39,6.39,0,0,0,3.09-1.83,3.66,3.66,0,0,0-.76-4A10.28,10.28,0,0,0,536.84,278.67Z" transform="translate(-294.95 -231.52)"/><polygon class="cls-1" points="225.92 42.89 225.92 47.4 213.1 47.4 213.1 51.91 224.49 51.91 224.49 56.16 213.41 56.16 213.1 56.54 213.1 61.18 226.12 61.18 226.12 65.44 207.61 65.44 207.61 42.89 225.92 42.89"/><path class="cls-1" d="M497.88,274.16v4.13c0,.09.36.28-.1.63H485.27v4.51h11.19v4.26H485.27v5h12.82V297H479.78V274.41h17.6C497.44,274.41,497.66,274.07,497.88,274.16Z" transform="translate(-294.95 -231.52)"/><path class="cls-1" d="M425.67,297c-.14-.68.28-.36.47-.81,2.61-6.29,5.52-12.61,8.34-18.8.42-.92.82-2.75,1.66-3.07l5.15.44,1.21,3.14c3,5.85,5.45,12.61,8.39,18.67.12.23.49,0,.41.43h-6.1c.19-.7-.32-.71-.46-1.07-.28-.67-.49-1.25-.76-1.87s-.23-1.44-.66-1.66l-9.42-.18c-.85-.09-.68.85-.92,1.32a18.38,18.38,0,0,0-.81,2c-.13.32-.78.59-.6,1.45Zm9.56-9h6.31c.24-.85-.51-1.19-.61-1.43a40.34,40.34,0,0,0-2.24-5.26c-.14-.26-.15-.84-.3-.83L436.86,284c-.25.58-.49,1.22-.76,1.87C435.92,286.33,435.16,287.07,435.23,287.94Z" transform="translate(-294.95 -231.52)"/><path class="cls-1" d="M452,306.23a82.36,82.36,0,0,1,5,7.45c.75.95,1.17-.68,1.58-1.25a69.22,69.22,0,0,1,4.13-5.73.87.87,0,0,0,.14-.47h4.88v18.54h-4.27V313.24c-.37-.09-.41.14-.58.42-.74,1.18-1.59,2.47-2.39,3.57-.38.53-2,2.95-2.33,3.15-.65.45-1.49-.11-2-.7-1.35-1.69-2.6-4.47-4.15-6a1.76,1.76,0,0,0-.58-.41v11.53H447V306.23Z" transform="translate(-294.95 -231.52)"/><path class="cls-1" d="M423.84,277.67l-3.17,3C418,279,415.08,278.06,412,279a11.09,11.09,0,0,0-3.71,2.62c-.78.9-1.21,3.38-1.18,4.66a7.26,7.26,0,0,0,5.22,6.35c3.05.82,5.6-.09,8.31-1.73a26.45,26.45,0,0,1,3.12,2.31,1.39,1.39,0,0,1,0,.9,14.76,14.76,0,0,1-3,2c-5.52,2.79-13.4,1.87-17.41-3.95-1.6-2.32-1.93-4.28-1.76-7.38a11.17,11.17,0,0,1,5.67-8.81A14.18,14.18,0,0,1,423.84,277.67Z" transform="translate(-294.95 -231.52)"/><path class="cls-1" d="M442.07,310.08a10,10,0,0,1,1.49,7.73c0,.09-.59,1.45-.67,1.61-3.5,7.17-15.17,7.46-19.46,1.4-1-1.39-.87-2-1.23-3.63,0-.21-.35-.18-.39-.36a18.85,18.85,0,0,1,0-2.91c0-.18.33-.17.38-.37.63-2.47,1.27-3.88,3.17-5.32C429.92,304.77,438.44,304.83,442.07,310.08Zm-3.85,2.24a10.71,10.71,0,0,0-2.3-1.8c-3.17-1.63-7.65-.88-9.05,3.28-.06.18-.34.19-.38.37a13.74,13.74,0,0,0,0,2.4c0,.19.33.19.39.37a5.57,5.57,0,0,0,2.76,3.57,6.63,6.63,0,0,0,6.59-.16c1.62-1,1.91-1.45,2.48-3.4.06-.22.35-.2.38-.38a11,11,0,0,0,0-2.15c0-.17-.32-.16-.38-.37A5.23,5.23,0,0,0,438.22,312.32Z" transform="translate(-294.95 -231.52)"/><path class="cls-1" d="M488.12,324.77l8-18.23c.55-.69,3.81-.12,4.74-.33l8.64,18.56h-5.09c.12-.93-.66-1.58-.81-1.94-.23-.55-.28-1.7-.65-1.91l-8.48-.13a10.33,10.33,0,0,1-1.75,4Zm7.93-7.77h5.09c.15-.65-.47-.9-.59-1.2-.36-.88-.62-2-1-2.88-.14-.28-.67-.49-.59-1.28l-.53-.15-1.94,5.08Z" transform="translate(-294.95 -231.52)"/><path class="cls-1" d="M482.73,306.23c1.32.19,4.37,1.67,5.12,3.08a9.7,9.7,0,0,1,.49,1.73c.05.18.35.19.38.37a13.65,13.65,0,0,1,0,2.22c0,.12-.73,1.95-.84,2.18-.69,1.42-3.88,3.19-5.18,3.19h-5.8v5.77h-4.68V306.23C475.56,306.58,479.5,305.75,482.73,306.23Zm-1.42,3.5c-1.33-.22-3,.17-4.38,0v5.77h4.78a11.52,11.52,0,0,0,1.67-1.08,4,4,0,0,0,0-3.61A6.41,6.41,0,0,0,481.31,309.73Z" transform="translate(-294.95 -231.52)"/><path class="cls-1" d="M546.06,308c.32.66-.29.71-.37.89a6.52,6.52,0,0,1-1.36,2.3c-2.48-1-5-2.35-7.64-1.4a1.53,1.53,0,0,0-1.07,2.18c.62,1.26,6.12,2.06,7.58,2.68,2.25,1,4.51,3.12,3.48,6.39a21,21,0,0,1-1.41,2.06c-3.55,3.4-11.51,2.29-15-1l2.17-2.64c2.61,1.13,4.81,2.37,7.69,2,1-.14,3-1.13,2.08-2.68-1.11-1.78-8.53-1.68-10.32-4.27a6.87,6.87,0,0,1-1-2.95,5.9,5.9,0,0,1,2.5-4.38c2.66-1.79,6.51-1.63,9.38-.78A13.66,13.66,0,0,1,546.06,308Z" transform="translate(-294.95 -231.52)"/><path class="cls-1" d="M526.9,309.16l-1.48,2c-2.17-.76-4.16-1.94-6.49-1.73-.86.07-2.51.61-2.51,1.88,0,.8.55,1.13,1.09,1.39,3.33,1.6,7.74.73,9.88,4.82.08.17.36.16.39.36a20,20,0,0,1,0,2.9c0,.18-.31.18-.38.37a8.68,8.68,0,0,1-.25.91c-2.08,3.52-8.72,3.39-11.82,2.33-1.29-.44-2.37-1.39-3.61-1.93-.44-.63,1.95-2.31,1.83-3.25,2.55,1.57,5.9,3.07,8.74,1.87,1-.43,1.21-1,.92-2.38-2.8-1.94-6.3-1.28-9.16-3.25a3.9,3.9,0,0,1-1.74-2.31c-.08-.19-.35-.2-.38-.38a13.74,13.74,0,0,1,0-2.4c0-.18.3-.18.38-.37a5.55,5.55,0,0,1,4.25-3.74A13.07,13.07,0,0,1,527.09,308Z" transform="translate(-294.95 -231.52)"/><path class="cls-1" d="M407.44,311.83a5.75,5.75,0,0,0,1.12,8.34,7.51,7.51,0,0,0,6.69.65c.68-.25,1.2-.77,1.67-.95,1.18-.47,2.54,1.46,3.46,2.27a11.82,11.82,0,0,1-4.26,2.5,13.46,13.46,0,0,1-9.71-.83,8.73,8.73,0,0,1-4.76-6.37c0-.21-.36-.11-.4-.55a18.91,18.91,0,0,1,0-2.72c0-.18.34-.15.39-.36a7.08,7.08,0,0,1,1-3.13c3.18-4.94,9.57-5.82,14.23-4.07a12.6,12.6,0,0,1,3.05,1.75c.19.21.35.34.11.63l-2.88,2.45C414.21,309.29,410.19,308.91,407.44,311.83Z" transform="translate(-294.95 -231.52)"/><path class="cls-2" d="M465.85,278.67a8.1,8.1,0,0,1,2.89,1.32,4.49,4.49,0,0,1,0,3.87,6.74,6.74,0,0,1-2.89,1.57h-5.8v-6.76C461.89,278.86,464.05,278.41,465.85,278.67Z" transform="translate(-294.95 -231.52)"/><path class="cls-2" d="M536.84,278.67a10.28,10.28,0,0,1,2.33.89,3.66,3.66,0,0,1,.76,4,6.39,6.39,0,0,1-3.09,1.83H531v-6.76C532.88,278.86,535,278.41,536.84,278.67Z" transform="translate(-294.95 -231.52)"/><path class="cls-2" d="M435.23,287.94c-.07-.87.69-1.61.87-2.07.27-.65.51-1.29.76-1.87l1.53-3.58c.15,0,.16.57.3.83a40.34,40.34,0,0,1,2.24,5.26c.1.24.85.58.61,1.43Z" transform="translate(-294.95 -231.52)"/><path class="cls-2" d="M438.22,312.32a5.23,5.23,0,0,1,.49,1.73c.06.21.35.2.38.37a11,11,0,0,1,0,2.15c0,.18-.32.16-.38.38-.57,1.95-.86,2.39-2.48,3.4a6.63,6.63,0,0,1-6.59.16,5.57,5.57,0,0,1-2.76-3.57c-.06-.18-.35-.18-.39-.37a13.74,13.74,0,0,1,0-2.4c0-.18.32-.19.38-.37,1.4-4.16,5.88-4.91,9.05-3.28A10.71,10.71,0,0,1,438.22,312.32Z" transform="translate(-294.95 -231.52)"/><path class="cls-2" d="M496.05,317l.4-.43,1.94-5.08.53.15c-.08.79.45,1,.59,1.28.42.84.68,2,1,2.88.12.3.74.55.59,1.2Z" transform="translate(-294.95 -231.52)"/><path class="cls-2" d="M481.31,309.73a6.41,6.41,0,0,1,2.07,1.08,4,4,0,0,1,0,3.61,11.52,11.52,0,0,1-1.67,1.08h-4.78v-5.77C478.3,309.9,480,309.51,481.31,309.73Z" transform="translate(-294.95 -231.52)"/><text class="cls-3" transform="translate(106.86 117.17) scale(0.81 1)">Unlock your potential</text><path class="cls-1" d="M358,263.11a47.19,47.19,0,0,1,7.1,2.43c.58.23,4.13,1.18,4.27,1.32l-3.15,8.48c-1.77.51-2.19-.85-3.13-1.22a47.13,47.13,0,0,0-10.75-2.76c-3.32-.46-11-.89-14.48,0a15.91,15.91,0,0,1-2.66,1c-40.67,10.43-41.08,68.13-2.27,80.36,4.13,1.3,5.08,1.06,9.28,1.73.41.06.19.67,1,.71a89.15,89.15,0,0,0,10.58-.64c.67-.11,7.48-2.26,8.65-2.71,15.93-6.13,25.21-24.14,25.35-38.2.09-9.35-3.6-17.66-8-26l7.37-4c1.22,0,5.15,8.33,5.73,9.72,12.25,29.59-4.76,69.89-47.74,70.38a68.87,68.87,0,0,1-11.41-.85c-28.28-6.6-41.91-35.71-38.2-58.77C299.69,278.39,325.08,256.55,358,263.11Z" transform="translate(-294.95 -231.52)"/><path class="cls-1" d="M351.61,232.68c12.52,4.61,26.31,10.55,38.49,15.9,1.49.66,3.41.64,4.13,1.95a82.76,82.76,0,0,0-11,5.05c.42,2.08-.14,4.09-.07,6.21a58.3,58.3,0,0,0,.43,6.48c.12.34,1,.35,1.29.67,1.55,1.73,2.41,4.49,1,6.4a28.72,28.72,0,0,1-2.82,2c-4.69,1.35-7.91-3-7-6.12.3-1,2.36-2.8,2.45-3.51.06-.53-.43-1.2-.44-1.85,0-3,.46-5.94,0-8.92-1.71-.3-2.1.87-2.88,1.25-1.95,1-4,1.7-5.82,2.81-1-.32-2.1-.53-3.09-.85-8-2.6-20-4.09-29.12-2.58-.3.05-.27.54-.61.6-2.4.4-4.83.6-7.16,1.23-.8.21-1.62,1.22-3.19,1.14-1.89-.1-2-1-2.76-1.36l-12.59-5.46c-1.15-.49-8.15-2.78-8.39-3.5.47-1,2.66-1.17,3.93-1.72,12.24-5.31,24.77-11,37.39-16C347.46,231,348,231.35,351.61,232.68Z" transform="translate(-294.95 -231.52)"/><polyline class="cls-4" points="58.69 90.01 76.12 51.82 39.66 71.28"/><polyline class="cls-5" points="40.85 70.46 21.01 107.23 58.56 90.29"/></svg>